<svg width="18" height="18" viewBox="0 0 18 18" fill="none" xmlns="http://www.w3.org/2000/svg">

    <g id="logo">
        <path d="M51.8601 28.138H63.8121V24.538H56.1081V10.978H51.8601V28.138Z" fill="#340E0E"/>
        <path d="M70.8932 25.738C69.1892 25.738 68.3012 24.25 68.3012 22.018C68.3012 19.786 69.1892 18.274 70.8932 18.274C72.5972 18.274 73.5092 19.786 73.5092 22.018C73.5092 24.25 72.5972 25.738 70.8932 25.738ZM70.9172 28.522C74.8772 28.522 77.4692 25.714 77.4692 22.018C77.4692 18.322 74.8772 15.514 70.9172 15.514C66.9812 15.514 64.3412 18.322 64.3412 22.018C64.3412 25.714 66.9812 28.522 70.9172 28.522Z"
              fill="#340E0E"/>
        <path d="M84.3237 32.386C86.1477 32.386 87.7557 31.978 88.8357 31.018C89.8197 30.13 90.4677 28.786 90.4677 26.938V15.85H86.7237V17.17H86.6757C85.9557 16.138 84.8517 15.49 83.2197 15.49C80.1717 15.49 78.0597 18.034 78.0597 21.634C78.0597 25.402 80.6277 27.466 83.3877 27.466C84.8757 27.466 85.8117 26.866 86.5317 26.05H86.6277V27.274C86.6277 28.762 85.9317 29.626 84.2757 29.626C82.9797 29.626 82.3317 29.074 82.1157 28.426H78.3237C78.7077 30.994 80.9397 32.386 84.3237 32.386ZM84.2997 24.562C82.8357 24.562 81.8757 23.362 81.8757 21.514C81.8757 19.642 82.8357 18.442 84.2997 18.442C85.9317 18.442 86.7957 19.834 86.7957 21.49C86.7957 23.218 86.0037 24.562 84.2997 24.562Z"
              fill="#340E0E"/>
        <path d="M98.166 25.738C96.462 25.738 95.574 24.25 95.574 22.018C95.574 19.786 96.462 18.274 98.166 18.274C99.87 18.274 100.782 19.786 100.782 22.018C100.782 24.25 99.87 25.738 98.166 25.738ZM98.19 28.522C102.15 28.522 104.742 25.714 104.742 22.018C104.742 18.322 102.15 15.514 98.19 15.514C94.254 15.514 91.614 18.322 91.614 22.018C91.614 25.714 94.254 28.522 98.19 28.522Z"
              fill="#340E0E"/>
        <path d="M105.884 28.138H109.796V15.85H105.884V28.138ZM105.884 14.146H109.796V10.978H105.884V14.146Z"
              fill="#340E0E"/>
        <path d="M111.494 32.194H115.406V26.866H115.454C116.222 27.898 117.35 28.522 118.934 28.522C122.15 28.522 124.286 25.978 124.286 21.994C124.286 18.298 122.294 15.49 119.03 15.49C117.35 15.49 116.15 16.234 115.31 17.338H115.238V15.85H111.494V32.194ZM117.926 25.498C116.246 25.498 115.286 24.13 115.286 22.138C115.286 20.146 116.15 18.634 117.854 18.634C119.534 18.634 120.326 20.026 120.326 22.138C120.326 24.226 119.414 25.498 117.926 25.498Z"
              fill="#340E0E"/>
        <path d="M130.655 28.522C133.871 28.522 136.247 27.13 136.247 24.442C136.247 21.298 133.703 20.746 131.543 20.386C129.983 20.098 128.591 19.978 128.591 19.114C128.591 18.346 129.335 17.986 130.295 17.986C131.375 17.986 132.119 18.322 132.263 19.426H135.863C135.671 17.002 133.799 15.49 130.319 15.49C127.415 15.49 125.015 16.834 125.015 19.426C125.015 22.306 127.295 22.882 129.431 23.242C131.063 23.53 132.551 23.65 132.551 24.754C132.551 25.546 131.807 25.978 130.631 25.978C129.335 25.978 128.519 25.378 128.375 24.154H124.679C124.799 26.866 127.055 28.522 130.655 28.522Z"
              fill="#340E0E"/>
        <path d="M141.561 28.498C143.265 28.498 144.345 27.826 145.233 26.626H145.305V28.138H149.049V15.85H145.137V22.714C145.137 24.178 144.321 25.186 142.977 25.186C141.729 25.186 141.129 24.442 141.129 23.098V15.85H137.241V23.914C137.241 26.65 138.729 28.498 141.561 28.498Z"
              fill="#340E0E"/>
        <path d="M150.75 28.138H154.662V21.25C154.662 19.786 155.382 18.754 156.606 18.754C157.782 18.754 158.334 19.522 158.334 20.842V28.138H162.246V21.25C162.246 19.786 162.942 18.754 164.19 18.754C165.366 18.754 165.918 19.522 165.918 20.842V28.138H169.83V20.146C169.83 17.386 168.438 15.49 165.654 15.49C164.07 15.49 162.75 16.162 161.79 17.65H161.742C161.118 16.33 159.894 15.49 158.286 15.49C156.51 15.49 155.334 16.33 154.566 17.602H154.494V15.85H150.75V28.138Z"
              fill="#340E0E"/>
    </g>

    <g id="search">
        <path d="M17.5688 16.6812L13.5063 12.6187H13.4625C14.7147 11.1423 15.3475 9.23893 15.2285 7.30669C15.1095 5.37445 14.248 3.56306 12.8241 2.25143C11.4003 0.939796 9.52441 0.229534 7.58891 0.269217C5.65342 0.308899 3.80824 1.09545 2.43935 2.46434C1.07046 3.83323 0.283905 5.67841 0.244223 7.6139C0.20454 9.5494 0.914802 11.4253 2.22643 12.8491C3.53806 14.273 5.34946 15.1345 7.2817 15.2535C9.21394 15.3724 11.1173 14.7397 12.5938 13.4875C12.5938 13.4875 12.5938 13.5187 12.5938 13.5312L16.6563 17.5937C16.7144 17.6523 16.7835 17.6988 16.8596 17.7306C16.9358 17.7623 17.0175 17.7786 17.1 17.7786C17.1825 17.7786 17.2642 17.7623 17.3404 17.7306C17.4165 17.6988 17.4857 17.6523 17.5438 17.5937C17.6078 17.537 17.6596 17.4677 17.6958 17.3902C17.732 17.3126 17.7519 17.2285 17.7542 17.1429C17.7566 17.0574 17.7413 16.9722 17.7094 16.8928C17.6775 16.8134 17.6296 16.7414 17.5688 16.6812ZM7.75001 14C6.51387 14 5.3055 13.6334 4.27769 12.9467C3.24988 12.2599 2.44881 11.2838 1.97576 10.1418C1.50271 8.99973 1.37894 7.74306 1.6201 6.53068C1.86125 5.3183 2.45651 4.20466 3.33059 3.33058C4.20467 2.4565 5.31831 1.86125 6.53069 1.62009C7.74307 1.37893 8.99974 1.5027 10.1418 1.97575C11.2838 2.4488 12.2599 3.24988 12.9467 4.27768C13.6335 5.30549 14 6.51386 14 7.75C14 8.57076 13.8383 9.38348 13.5243 10.1418C13.2102 10.9001 12.7498 11.589 12.1694 12.1694C11.5891 12.7498 10.9001 13.2102 10.1418 13.5242C9.38349 13.8383 8.57077 14 7.75001 14Z"
              fill="white"/>
    </g>

    <g id="notifications">
        <path d="M19.697 15.468C19.677 15.452 17.557 13.828 17.594 9.43799C17.614 6.90599 16.782 4.65599 15.247 3.10299C13.872 1.70999 12.01 0.939993 10.005 0.929993H9.99197C7.98798 0.939993 6.12597 1.70999 4.74997 3.10399C3.21597 4.65699 2.38197 6.90599 2.40397 9.43799C2.44097 13.768 0.383975 15.405 0.301975 15.468C0.0419748 15.661 -0.0640253 15.998 0.0369747 16.306C0.138975 16.614 0.426975 16.821 0.748975 16.821H5.66897C5.77098 19.131 7.66597 20.981 9.99897 20.981C12.332 20.981 14.225 19.131 14.326 16.821H19.248C19.57 16.821 19.858 16.615 19.958 16.307C20.061 16 19.955 15.662 19.695 15.469L19.697 15.468ZM9.99998 19.478C8.49498 19.478 7.26997 18.301 7.17197 16.82H12.828C12.728 18.3 11.505 19.48 9.99998 19.48V19.478ZM2.37997 15.32C3.11997 14.188 3.92797 12.292 3.90397 9.42399C3.88597 7.26399 4.54797 5.44199 5.81697 4.15699C6.90997 3.04999 8.39698 2.43699 9.99998 2.42999C11.603 2.43799 13.087 3.04999 14.18 4.15799C15.45 5.44299 16.113 7.26399 16.095 9.42499C16.071 12.293 16.88 14.19 17.62 15.321H2.37997V15.32Z"
              fill="black"/>
    </g>

</svg>
