<svg width="18" height="18" viewBox="0 0 18 18" fill="none" xmlns="http://www.w3.org/2000/svg">

    <g id="logo">
        <path d="M51.8601 28.138H63.8121V24.538H56.1081V10.978H51.8601V28.138Z" fill="#340E0E"/>
        <path d="M70.8932 25.738C69.1892 25.738 68.3012 24.25 68.3012 22.018C68.3012 19.786 69.1892 18.274 70.8932 18.274C72.5972 18.274 73.5092 19.786 73.5092 22.018C73.5092 24.25 72.5972 25.738 70.8932 25.738ZM70.9172 28.522C74.8772 28.522 77.4692 25.714 77.4692 22.018C77.4692 18.322 74.8772 15.514 70.9172 15.514C66.9812 15.514 64.3412 18.322 64.3412 22.018C64.3412 25.714 66.9812 28.522 70.9172 28.522Z"
              fill="#340E0E"/>
        <path d="M84.3237 32.386C86.1477 32.386 87.7557 31.978 88.8357 31.018C89.8197 30.13 90.4677 28.786 90.4677 26.938V15.85H86.7237V17.17H86.6757C85.9557 16.138 84.8517 15.49 83.2197 15.49C80.1717 15.49 78.0597 18.034 78.0597 21.634C78.0597 25.402 80.6277 27.466 83.3877 27.466C84.8757 27.466 85.8117 26.866 86.5317 26.05H86.6277V27.274C86.6277 28.762 85.9317 29.626 84.2757 29.626C82.9797 29.626 82.3317 29.074 82.1157 28.426H78.3237C78.7077 30.994 80.9397 32.386 84.3237 32.386ZM84.2997 24.562C82.8357 24.562 81.8757 23.362 81.8757 21.514C81.8757 19.642 82.8357 18.442 84.2997 18.442C85.9317 18.442 86.7957 19.834 86.7957 21.49C86.7957 23.218 86.0037 24.562 84.2997 24.562Z"
              fill="#340E0E"/>
        <path d="M98.166 25.738C96.462 25.738 95.574 24.25 95.574 22.018C95.574 19.786 96.462 18.274 98.166 18.274C99.87 18.274 100.782 19.786 100.782 22.018C100.782 24.25 99.87 25.738 98.166 25.738ZM98.19 28.522C102.15 28.522 104.742 25.714 104.742 22.018C104.742 18.322 102.15 15.514 98.19 15.514C94.254 15.514 91.614 18.322 91.614 22.018C91.614 25.714 94.254 28.522 98.19 28.522Z"
              fill="#340E0E"/>
        <path d="M105.884 28.138H109.796V15.85H105.884V28.138ZM105.884 14.146H109.796V10.978H105.884V14.146Z"
              fill="#340E0E"/>
        <path d="M111.494 32.194H115.406V26.866H115.454C116.222 27.898 117.35 28.522 118.934 28.522C122.15 28.522 124.286 25.978 124.286 21.994C124.286 18.298 122.294 15.49 119.03 15.49C117.35 15.49 116.15 16.234 115.31 17.338H115.238V15.85H111.494V32.194ZM117.926 25.498C116.246 25.498 115.286 24.13 115.286 22.138C115.286 20.146 116.15 18.634 117.854 18.634C119.534 18.634 120.326 20.026 120.326 22.138C120.326 24.226 119.414 25.498 117.926 25.498Z"
              fill="#340E0E"/>
        <path d="M130.655 28.522C133.871 28.522 136.247 27.13 136.247 24.442C136.247 21.298 133.703 20.746 131.543 20.386C129.983 20.098 128.591 19.978 128.591 19.114C128.591 18.346 129.335 17.986 130.295 17.986C131.375 17.986 132.119 18.322 132.263 19.426H135.863C135.671 17.002 133.799 15.49 130.319 15.49C127.415 15.49 125.015 16.834 125.015 19.426C125.015 22.306 127.295 22.882 129.431 23.242C131.063 23.53 132.551 23.65 132.551 24.754C132.551 25.546 131.807 25.978 130.631 25.978C129.335 25.978 128.519 25.378 128.375 24.154H124.679C124.799 26.866 127.055 28.522 130.655 28.522Z"
              fill="#340E0E"/>
        <path d="M141.561 28.498C143.265 28.498 144.345 27.826 145.233 26.626H145.305V28.138H149.049V15.85H145.137V22.714C145.137 24.178 144.321 25.186 142.977 25.186C141.729 25.186 141.129 24.442 141.129 23.098V15.85H137.241V23.914C137.241 26.65 138.729 28.498 141.561 28.498Z"
              fill="#340E0E"/>
        <path d="M150.75 28.138H154.662V21.25C154.662 19.786 155.382 18.754 156.606 18.754C157.782 18.754 158.334 19.522 158.334 20.842V28.138H162.246V21.25C162.246 19.786 162.942 18.754 164.19 18.754C165.366 18.754 165.918 19.522 165.918 20.842V28.138H169.83V20.146C169.83 17.386 168.438 15.49 165.654 15.49C164.07 15.49 162.75 16.162 161.79 17.65H161.742C161.118 16.33 159.894 15.49 158.286 15.49C156.51 15.49 155.334 16.33 154.566 17.602H154.494V15.85H150.75V28.138Z"
              fill="#340E0E"/>
    </g>

    <g id="search">
        <path d="M17.5688 16.6812L13.5063 12.6187H13.4625C14.7147 11.1423 15.3475 9.23893 15.2285 7.30669C15.1095 5.37445 14.248 3.56306 12.8241 2.25143C11.4003 0.939796 9.52441 0.229534 7.58891 0.269217C5.65342 0.308899 3.80824 1.09545 2.43935 2.46434C1.07046 3.83323 0.283905 5.67841 0.244223 7.6139C0.20454 9.5494 0.914802 11.4253 2.22643 12.8491C3.53806 14.273 5.34946 15.1345 7.2817 15.2535C9.21394 15.3724 11.1173 14.7397 12.5938 13.4875C12.5938 13.4875 12.5938 13.5187 12.5938 13.5312L16.6563 17.5937C16.7144 17.6523 16.7835 17.6988 16.8596 17.7306C16.9358 17.7623 17.0175 17.7786 17.1 17.7786C17.1825 17.7786 17.2642 17.7623 17.3404 17.7306C17.4165 17.6988 17.4857 17.6523 17.5438 17.5937C17.6078 17.537 17.6596 17.4677 17.6958 17.3902C17.732 17.3126 17.7519 17.2285 17.7542 17.1429C17.7566 17.0574 17.7413 16.9722 17.7094 16.8928C17.6775 16.8134 17.6296 16.7414 17.5688 16.6812ZM7.75001 14C6.51387 14 5.3055 13.6334 4.27769 12.9467C3.24988 12.2599 2.44881 11.2838 1.97576 10.1418C1.50271 8.99973 1.37894 7.74306 1.6201 6.53068C1.86125 5.3183 2.45651 4.20466 3.33059 3.33058C4.20467 2.4565 5.31831 1.86125 6.53069 1.62009C7.74307 1.37893 8.99974 1.5027 10.1418 1.97575C11.2838 2.4488 12.2599 3.24988 12.9467 4.27768C13.6335 5.30549 14 6.51386 14 7.75C14 8.57076 13.8383 9.38348 13.5243 10.1418C13.2102 10.9001 12.7498 11.589 12.1694 12.1694C11.5891 12.7498 10.9001 13.2102 10.1418 13.5242C9.38349 13.8383 8.57077 14 7.75001 14Z"
              fill="white"/>
    </g>

    <g id="notifications">
        <path d="M19.697 15.468C19.677 15.452 17.557 13.828 17.594 9.43799C17.614 6.90599 16.782 4.65599 15.247 3.10299C13.872 1.70999 12.01 0.939993 10.005 0.929993H9.99197C7.98798 0.939993 6.12597 1.70999 4.74997 3.10399C3.21597 4.65699 2.38197 6.90599 2.40397 9.43799C2.44097 13.768 0.383975 15.405 0.301975 15.468C0.0419748 15.661 -0.0640253 15.998 0.0369747 16.306C0.138975 16.614 0.426975 16.821 0.748975 16.821H5.66897C5.77098 19.131 7.66597 20.981 9.99897 20.981C12.332 20.981 14.225 19.131 14.326 16.821H19.248C19.57 16.821 19.858 16.615 19.958 16.307C20.061 16 19.955 15.662 19.695 15.469L19.697 15.468ZM9.99998 19.478C8.49498 19.478 7.26997 18.301 7.17197 16.82H12.828C12.728 18.3 11.505 19.48 9.99998 19.48V19.478ZM2.37997 15.32C3.11997 14.188 3.92797 12.292 3.90397 9.42399C3.88597 7.26399 4.54797 5.44199 5.81697 4.15699C6.90997 3.04999 8.39698 2.43699 9.99998 2.42999C11.603 2.43799 13.087 3.04999 14.18 4.15799C15.45 5.44299 16.113 7.26399 16.095 9.42499C16.071 12.293 16.88 14.19 17.62 15.321H2.37997V15.32Z"
              fill="black"/>
    </g>

    <!-- NavIcons-->

    <g id="home">
        <path d="M23.6249 25.375H4.37494V14.875H2.83056C1.83481 14.875 1.37019 13.6334 2.12006 12.978L12.3646 3.27687C13.2816 2.40799 14.7174 2.40799 15.6344 3.27687L25.8781 12.978C26.6288 13.6325 26.1642 14.875 25.1676 14.875H23.6249V25.375Z"
              stroke="inherit" stroke-width="1.6" stroke-miterlimit="10" stroke-linecap="round"
              stroke-linejoin="round"/>
        <path d="M17.5 25.375H10.5V20.125C10.5 18.1921 12.0671 16.625 14 16.625C15.9329 16.625 17.5 18.1921 17.5 20.125V25.375Z"
              stroke="inherit" stroke-width="2" stroke-miterlimit="10" stroke-linecap="round" stroke-linejoin="round"/>
    </g>

    <g id="notification">
        <path d="M23.3132 17.2127C23.2899 17.194 20.8166 15.2993 20.8597 10.1777C20.8831 7.22366 19.9124 4.59866 18.1216 2.78683C16.5174 1.16166 14.3451 0.26333 12.0059 0.251663H11.9907C9.65275 0.26333 7.48042 1.16166 5.87508 2.788C4.08542 4.59983 3.11242 7.22366 3.13808 10.1777C3.18125 15.2293 0.781416 17.1392 0.685749 17.2127C0.382416 17.4378 0.258749 17.831 0.376582 18.1903C0.495582 18.5497 0.831583 18.7912 1.20725 18.7912H6.94725C7.06625 21.4862 9.27708 23.6445 11.9989 23.6445C14.7207 23.6445 16.9292 21.4862 17.0471 18.7912H22.7894C23.1651 18.7912 23.5011 18.5508 23.6177 18.1915C23.7379 17.8333 23.6142 17.439 23.3109 17.2138L23.3132 17.2127ZM12.0001 21.891C10.2442 21.891 8.81508 20.5178 8.70075 18.79H15.2994C15.1827 20.5167 13.7559 21.8933 12.0001 21.8933V21.891ZM3.11008 17.04C3.97342 15.7193 4.91608 13.5073 4.88808 10.1613C4.86708 7.64133 5.63942 5.51566 7.11992 4.0165C8.39508 2.725 10.1299 2.00983 12.0001 2.00166C13.8702 2.011 15.6016 2.725 16.8767 4.01766C18.3584 5.51683 19.1319 7.64133 19.1109 10.1625C19.0829 13.5085 20.0267 15.7217 20.8901 17.0412H3.11008V17.04Z"
              stroke="inherit"/>
    </g>

    <g id="messages">
        <path d="M22.4583 3.521H5.54159C3.77175 3.521 2.33325 4.96066 2.33325 6.73166V21.3092C2.33325 23.0802 3.77175 24.521 5.54159 24.521H22.4583C24.2281 24.521 25.6666 23.0802 25.6666 21.3092V6.73166C25.6666 4.96066 24.2281 3.521 22.4583 3.521ZM5.54159 5.271H22.4583C23.2633 5.271 23.9166 5.92433 23.9166 6.72933V7.56233L14.5249 13.8238C14.2064 14.0338 13.7946 14.0362 13.4749 13.8215L4.08325 7.56233V6.72933C4.08325 5.92433 4.73659 5.271 5.54159 5.271V5.271ZM22.4583 22.7687H5.54159C4.73659 22.7687 4.08325 22.1153 4.08325 21.3103V9.61333L12.5299 15.2483C12.9768 15.547 13.4889 15.6963 13.9999 15.6963C14.5133 15.6963 15.0231 15.547 15.4699 15.2495L23.9166 9.6145V21.3068C23.9166 22.1118 23.2633 22.7652 22.4583 22.7652V22.7687Z"
              fill="inherit"/>
    </g>

    <g id="collection">
        <path d="M20.2168 24.4167C20.0336 24.4167 19.8528 24.3583 19.7011 24.2487L11.0001 17.916L2.29911 24.251C2.03311 24.4423 1.68078 24.4727 1.38678 24.321C1.09511 24.1728 0.908447 23.8718 0.908447 23.5428V3.53333C0.908447 2.08667 2.08678 0.908333 3.53345 0.908333H18.4644C19.9111 0.908333 21.0894 2.08667 21.0894 3.53333V23.5417C21.0894 23.8707 20.9051 24.1717 20.6111 24.321C20.4874 24.3852 20.3509 24.4167 20.2144 24.4167H20.2168ZM11.0001 15.9583C11.1809 15.9583 11.3618 16.0143 11.5134 16.1263L19.3418 21.8232V3.53333C19.3418 3.05267 18.9486 2.65833 18.4668 2.65833H3.53345C3.05161 2.65833 2.65845 3.05267 2.65845 3.53333V21.8232L10.4868 16.1263C10.6384 16.0143 10.8193 15.9583 11.0001 15.9583V15.9583Z"
              fill="inherit"/>
    </g>

    <g id="subscription">
        <path d="M23.0416 25.6667H4.95825C3.51159 25.6667 2.33325 24.4883 2.33325 23.0417V4.95833C2.33325 3.51167 3.51159 2.33333 4.95825 2.33333H23.0416C24.4883 2.33333 25.6666 3.51167 25.6666 4.95833V23.0417C25.6666 24.4883 24.4883 25.6667 23.0416 25.6667ZM4.95825 4.08333C4.47525 4.08333 4.08325 4.4765 4.08325 4.95833V23.0417C4.08325 23.5235 4.47525 23.9167 4.95825 23.9167H23.0416C23.5246 23.9167 23.9166 23.5235 23.9166 23.0417V4.95833C23.9166 4.4765 23.5246 4.08333 23.0416 4.08333H4.95825Z"
              fill="inherit"/>
        <path d="M19.8332 10.08H8.1665C7.6835 10.08 7.2915 9.68683 7.2915 9.205C7.2915 8.72317 7.6835 8.33 8.1665 8.33H19.8332C20.3162 8.33 20.7082 8.72083 20.7082 9.205C20.7082 9.68917 20.3162 10.08 19.8332 10.08ZM19.8332 14.875H8.1665C7.6835 14.875 7.2915 14.483 7.2915 14C7.2915 13.517 7.6835 13.125 8.1665 13.125H19.8332C20.3162 13.125 20.7082 13.517 20.7082 14C20.7082 14.483 20.3162 14.875 19.8332 14.875ZM13.9998 19.67H8.1665C7.6835 19.67 7.2915 19.2792 7.2915 18.795C7.2915 18.3108 7.6835 17.92 8.1665 17.92H13.9998C14.4828 17.92 14.8748 18.3132 14.8748 18.795C14.8748 19.2768 14.4828 19.67 13.9998 19.67Z"
              fill="inherit"/>
    </g>

    <g id="profile">
        <path d="M13.9999 13.7853C15.5807 13.7853 17.3506 13.6103 18.4799 12.32C19.4296 11.235 19.7376 9.55733 19.4202 7.196C18.9769 3.90017 16.9504 1.932 13.9999 1.932C11.0494 1.932 9.02289 3.90017 8.57956 7.19833C8.26222 9.55733 8.57022 11.235 9.51989 12.32C10.6492 13.6115 12.4191 13.7853 13.9999 13.7853ZM10.3132 7.42933C10.5022 6.02933 11.2314 3.682 13.9999 3.682C16.7684 3.682 17.4976 6.0305 17.6866 7.42933C17.9281 9.23767 17.7531 10.4942 17.1616 11.1685C16.6307 11.7752 15.6846 12.0353 13.9999 12.0353C12.3152 12.0353 11.3691 11.7752 10.8382 11.1685C10.2467 10.4942 10.0717 9.2365 10.3132 7.42933ZM23.6599 22.442C22.6367 18.3283 18.6642 15.4537 13.9999 15.4537C9.33556 15.4537 5.36306 18.3283 4.33989 22.442C4.13922 23.2493 4.30722 24.0753 4.80072 24.7053C5.27672 25.312 6.01406 25.662 6.82256 25.662H21.1772C21.9857 25.662 22.7231 25.312 23.1991 24.7053C23.6937 24.0753 23.8606 23.2505 23.6587 22.442H23.6599ZM21.8212 23.6273C21.6742 23.814 21.4526 23.9143 21.1772 23.9143H6.82256C6.54839 23.9143 6.32556 23.8152 6.17856 23.6273C6.01872 23.4243 5.96856 23.1467 6.03856 22.8643C6.86689 19.5335 10.1417 17.206 13.9999 17.206C17.8581 17.206 21.1329 19.5323 21.9612 22.8643C22.0312 23.1467 21.9811 23.4243 21.8212 23.6273Z"
              fill="inherit"/>
    </g>

    <g id="more">
        <path d="M19.2499 11.9583C18.1241 11.9583 17.2083 12.8765 17.2083 14C17.2083 15.1235 18.1229 16.0417 19.2499 16.0417C20.3746 16.0417 21.2916 15.1247 21.2916 14C21.2916 12.8753 20.3746 11.9583 19.2499 11.9583ZM19.2499 14.875C18.7669 14.875 18.3749 14.483 18.3749 14C18.3749 13.5182 18.7681 13.125 19.2499 13.125C19.7318 13.125 20.1249 13.517 20.1249 14C20.1249 14.4818 19.7329 14.875 19.2499 14.875ZM13.9999 11.9583C12.8729 11.9583 11.9583 12.8765 11.9583 14C11.9583 15.1235 12.8741 16.0417 13.9999 16.0417C15.1258 16.0417 16.0416 15.1247 16.0416 14C16.0416 12.8753 15.1269 11.9583 13.9999 11.9583ZM13.9999 14.875C13.5169 14.875 13.1249 14.483 13.1249 14C13.1249 13.5182 13.5181 13.125 13.9999 13.125C14.4818 13.125 14.8749 13.517 14.8749 14C14.8749 14.4818 14.4829 14.875 13.9999 14.875ZM8.74992 11.9583C7.62409 11.9583 6.70825 12.8765 6.70825 14C6.70825 15.1235 7.62409 16.0417 8.74992 16.0417C9.87458 16.0417 10.7916 15.1247 10.7916 14C10.7916 12.8753 9.87342 11.9583 8.74992 11.9583ZM8.74992 14.875C8.26692 14.875 7.87492 14.483 7.87492 14C7.87492 13.5182 8.26809 13.125 8.74992 13.125C9.23175 13.125 9.62492 13.517 9.62492 14C9.62492 14.4818 9.23292 14.875 8.74992 14.875Z"
              fill="inherit"/>
        <path d="M13.9999 26.5417C7.08392 26.5417 1.45825 20.916 1.45825 14C1.45825 7.084 7.08392 1.45834 13.9999 1.45834C20.9159 1.45834 26.5416 7.084 26.5416 14C26.5416 20.916 20.9159 26.5417 13.9999 26.5417ZM13.9999 3.20834C8.04992 3.20834 3.20825 8.05 3.20825 14C3.20825 19.95 8.04992 24.7917 13.9999 24.7917C19.9499 24.7917 24.7916 19.95 24.7916 14C24.7916 8.05 19.9499 3.20834 13.9999 3.20834Z"
              fill="inherit"/>
    </g>


    <!-- profile icons-->

    <g id="edit">
        <g clip-path="url(#clip0_115_1076)">
            <path d="M2.75 15.8125V19.25H6.1875L16.3304 9.10708L12.8929 5.66958L2.75 15.8125ZM18.9796 6.45791C19.3371 6.10041 19.3371 5.51833 18.9796 5.16083L16.8392 3.02041C16.4817 2.66291 15.8996 2.66291 15.5421 3.02041L13.8646 4.69791L17.3021 8.13542L18.9796 6.45791Z"
                  fill="black"/>
        </g>
        <defs>
            <clipPath id="clip0_115_1076">
                <rect width="22" height="22" fill="white"/>
            </clipPath>
        </defs>
    </g>

    <g id="share">
        <path d="M16.5 13.4956C15.6829 13.4956 14.948 13.8394 14.4262 14.388L8.32906 11.4029C8.35003 11.2626 8.36447 11.1207 8.36447 10.9746C8.36447 10.8323 8.35072 10.6934 8.33078 10.5569L14.4189 7.60444C14.9411 8.15754 15.6795 8.50472 16.5 8.50472C18.0819 8.50472 19.3645 7.22219 19.3645 5.64026C19.3645 4.05798 18.0819 2.77579 16.5 2.77579C14.9181 2.77579 13.6355 4.05798 13.6355 5.64026C13.6355 5.78257 13.6493 5.9211 13.6692 6.05791L7.58106 9.01038C7.0589 8.45729 6.32087 8.1101 5.5 8.1101C3.91772 8.1101 2.63553 9.39263 2.63553 10.9746C2.63553 12.5569 3.91772 13.839 5.5 13.839C6.31709 13.839 7.05203 13.4953 7.57384 12.9467L13.6709 15.9318C13.65 16.0717 13.6355 16.214 13.6355 16.3601C13.6355 17.9424 14.9181 19.2246 16.5 19.2246C18.0819 19.2246 19.3645 17.9424 19.3645 16.3601C19.3645 14.7778 18.0819 13.4956 16.5 13.4956Z"
              fill="black"/>
    </g>

    <!-- Post Icons-->

    <g id="postIcon1">
        <path d="M19.75 2H4.25C3.01 2 2 3.01 2 4.25V19.75C2 20.99 3.01 22 4.25 22H19.75C20.99 22 22 20.99 22 19.75V4.25C22 3.01 20.99 2 19.75 2ZM4.25 3.5H19.75C20.163 3.5 20.5 3.837 20.5 4.25V13.926L16.642 10.068C16.502 9.928 16.312 9.848 16.112 9.848H16.109C15.909 9.848 15.716 9.928 15.577 10.072L11.26 14.456L9.447 12.65C9.307 12.51 9.117 12.43 8.917 12.43C8.724 12.4 8.522 12.51 8.382 12.657L3.5 17.642V4.25C3.5 3.837 3.837 3.5 4.25 3.5ZM3.506 19.78L8.924 14.246L15.206 20.5H4.25C3.848 20.5 3.523 20.178 3.506 19.78ZM19.75 20.5H17.33L12.323 15.513L16.115 11.663L20.5 16.047V19.75C20.5 20.163 20.163 20.5 19.75 20.5Z"
              fill="grey"/>
        <path d="M8.86793 9.85109C9.71955 9.85109 10.4099 9.16071 10.4099 8.30909C10.4099 7.45747 9.71955 6.76709 8.86793 6.76709C8.0163 6.76709 7.32593 7.45747 7.32593 8.30909C7.32593 9.16071 8.0163 9.85109 8.86793 9.85109Z"
              fill="grey"/>
    </g>

    <g id="postIcon2">
        <path d="M19.2499 10.5V8.80005H14.8499V15.2H16.5499V13.2H18.5499V11.5H16.5499V10.5H19.2499ZM11.9499 8.80005H13.6499V15.2H11.9499V8.80005ZM8.3499 10.4C8.7499 10.4 9.2499 10.6 9.5499 10.9L10.7499 9.90005C10.1499 9.20005 9.2499 8.80005 8.3499 8.80005C6.5499 8.80005 5.1499 10.2 5.1499 12C5.1499 13.8 6.5499 15.2 8.3499 15.2C9.3499 15.2 10.1499 14.8 10.7499 14.1V11.6H7.9499V12.8H9.1499V13.4C8.9499 13.5 8.6499 13.6 8.3499 13.6C7.4499 13.6 6.7499 12.9 6.7499 12C6.7499 11.2 7.4499 10.4 8.3499 10.4Z"
              fill="grey"/>
        <path d="M20.75 2.02002H3.75C2.51 2.02002 1.5 3.02702 1.5 4.26702V19.774C1.5 21.012 2.51 22.02 3.75 22.02H20.75C21.99 22.02 23 21.012 23 19.774V4.26702C23 3.02702 21.99 2.02002 20.75 2.02002ZM21.5 19.774C21.5 20.184 21.164 20.52 20.75 20.52H3.75C3.336 20.52 3 20.184 3 19.774V4.26702C3 3.85502 3.336 3.52002 3.75 3.52002H20.75C21.164 3.52002 21.5 3.85502 21.5 4.26702V19.774Z"
              fill="grey"/>
    </g>

    <g id="postIcon3">
        <path d="M20.722 9.15991H19.388C19.403 9.06991 19.416 8.97791 19.416 8.88291V6.56991C19.416 5.58991 18.619 4.79291 17.638 4.79291H4V3.35791C4 2.94391 3.664 2.60791 3.25 2.60791C2.836 2.60791 2.5 2.94391 2.5 3.35791V20.8299C2.5 21.2449 2.836 21.5799 3.25 21.5799C3.664 21.5799 4 21.2449 4 20.8299V19.3959H14.556C15.536 19.3959 16.334 18.5989 16.334 17.6189V15.3059C16.334 15.2109 16.32 15.1189 16.306 15.0279H20.723C21.703 15.0279 22.501 14.2299 22.501 13.2499V10.9399C22.501 9.95691 21.704 9.15991 20.723 9.15991H20.722ZM17.64 6.29291C17.792 6.29291 17.917 6.41691 17.917 6.56991V8.87991C17.917 9.03391 17.792 9.15991 17.639 9.15991H4V6.28991H17.64V6.29291ZM14.833 15.3069V17.6189C14.833 17.7719 14.708 17.8959 14.555 17.8959H4V15.0279H14.556C14.709 15.0279 14.833 15.1539 14.833 15.3079V15.3069ZM21 13.2499C21 13.4029 20.875 13.5269 20.722 13.5269H4V10.6599H20.722C20.875 10.6599 21 10.7839 21 10.9369V13.2499Z"
              fill="grey"/>
    </g>

    <g id="postIcon4">
        <path d="M12.75 22.75C6.822 22.75 2 17.928 2 12C2 6.072 6.822 1.25 12.75 1.25C18.678 1.25 23.5 6.072 23.5 12C23.5 17.928 18.678 22.75 12.75 22.75ZM12.75 2.75C7.65 2.75 3.5 6.9 3.5 12C3.5 17.1 7.65 21.25 12.75 21.25C17.85 21.25 22 17.1 22 12C22 6.9 17.85 2.75 12.75 2.75Z"
              fill="grey"/>
        <path d="M12.75 17.1151C10.858 17.1151 9.11701 16.1651 8.09401 14.5711C7.87001 14.2231 7.97101 13.7611 8.32001 13.5361C8.66801 13.3101 9.13201 13.4121 9.35601 13.7621C10.103 14.9241 11.372 15.6171 12.751 15.6171C14.13 15.6171 15.399 14.9241 16.147 13.7631C16.371 13.4131 16.835 13.3131 17.183 13.5381C17.533 13.7621 17.633 14.2261 17.409 14.5741C16.384 16.1681 14.643 17.1191 12.751 17.1191L12.75 17.1151Z"
              fill="grey"/>
        <path d="M15.488 10.936C16.3043 10.936 16.966 10.2743 16.966 9.45798C16.966 8.6417 16.3043 7.97998 15.488 7.97998C14.6717 7.97998 14.01 8.6417 14.01 9.45798C14.01 10.2743 14.6717 10.936 15.488 10.936Z"
              fill="grey"/>
        <path d="M10.0119 10.936C10.8282 10.936 11.4899 10.2743 11.4899 9.45798C11.4899 8.6417 10.8282 7.97998 10.0119 7.97998C9.19566 7.97998 8.53394 8.6417 8.53394 9.45798C8.53394 10.2743 9.19566 10.936 10.0119 10.936Z"
              fill="grey"/>
    </g>

    <g id="postIcon5">
        <g clip-path="url(#clip0_115_425)">
            <path d="M-37.9 18.0001C-38 17.9001 -38 17.9001 -38 17.8001C-37.9 17.8001 -37.9 17.9001 -37.9 18.0001ZM18 2.2001H16.7V1.9001C16.7 1.5001 16.4 1.1001 15.9 1.1001C15.5 1.1001 15.1 1.4001 15.1 1.9001V2.2001H7.7V1.9001C7.7 1.5001 7.4 1.1001 6.9 1.1001C6.5 1.1001 6.1 1.4001 6.1 1.9001V2.2001H4.8C3.4 2.2001 2.3 3.3001 2.3 4.7001V17.8001C2.3 19.2001 3.4 20.3001 4.8 20.3001H7.7C8.1 20.3001 8.5 20.0001 8.5 19.5001C8.5 19.1001 8.2 18.7001 7.7 18.7001H4.8C4.2 18.7001 3.8 18.2001 3.8 17.7001V7.9001C3.8 7.6001 4.2 7.2001 4.8 7.2001H18C18.6 7.2001 19 7.6001 19 7.9001V9.7001C19 10.1001 19.3 10.5001 19.8 10.5001C20.2 10.5001 20.6 10.2001 20.6 9.7001V4.7001C20.5 3.3001 19.4 2.2001 18 2.2001ZM19 5.9001C18.7 5.8001 18.3 5.7001 18 5.7001H4.8C4.4 5.7001 4.1 5.8001 3.8 5.9001V4.7001C3.8 4.1001 4.3 3.7001 4.8 3.7001H6.1V4.2001C6.1 4.6001 6.4 5.0001 6.9 5.0001C7.3 5.0001 7.7 4.7001 7.7 4.2001V3.7001H15.2V4.2001C15.2 4.6001 15.5 5.0001 16 5.0001C16.4 5.0001 16.8 4.7001 16.8 4.2001V3.7001H18C18.6 3.7001 19 4.2001 19 4.7001V5.9001Z"
                  fill="grey"/>
            <path d="M15.5 10.4001C12.1 10.4001 9.30005 13.2001 9.30005 16.6001C9.30005 20.0001 12.1 22.8001 15.5 22.8001C18.9 22.8001 21.7 20.0001 21.7 16.6001C21.7 13.2001 18.9 10.4001 15.5 10.4001ZM15.5 21.4001C12.9 21.4001 10.8 19.3001 10.8 16.7001C10.8 14.1001 12.9 12.0001 15.5 12.0001C18.1 12.0001 20.2 14.1001 20.2 16.7001C20.2 19.2001 18.1 21.4001 15.5 21.4001Z"
                  fill="grey"/>
            <path d="M18.9 18.7002C18.8 18.9002 18.5 19.1002 18.3 19.1002C18.2 19.1002 18 19.1002 17.9 19.0002L14.8 17.0002V14.0002C14.8 13.6002 15.1 13.2002 15.6 13.2002C16 13.2002 16.4 13.5002 16.4 14.0002V16.2002L18.8 17.7002C19 17.9002 19.1 18.3002 18.9 18.7002Z"
                  fill="grey"/>
        </g>
        <defs>
            <clipPath id="clip0_115_425">
                <rect width="24" height="24" fill="white"/>
            </clipPath>
        </defs>
    </g>
</svg>
